<mxfile host="app.diagrams.net" agent="Mozilla/5.0 (Windows NT 10.0; Win64; x64) AppleWebKit/537.36 (KHTML, like Gecko) Chrome/131.0.0.0 Safari/537.36 Edg/131.0.0.0" version="26.0.4">
  <diagram id="C5RBs43oDa-KdzZeNtuy" name="Page-1">
    <mxGraphModel dx="794" dy="1648" grid="1" gridSize="10" guides="1" tooltips="1" connect="1" arrows="1" fold="1" page="1" pageScale="1" pageWidth="827" pageHeight="1169" math="0" shadow="0">
      <root>
        <mxCell id="WIyWlLk6GJQsqaUBKTNV-0" />
        <mxCell id="WIyWlLk6GJQsqaUBKTNV-1" parent="WIyWlLk6GJQsqaUBKTNV-0" />
        <mxCell id="HQgLwKXl0pq5Ib247FOc-5" value="" style="edgeStyle=orthogonalEdgeStyle;rounded=0;orthogonalLoop=1;jettySize=auto;html=1;" edge="1" parent="WIyWlLk6GJQsqaUBKTNV-1" source="WIyWlLk6GJQsqaUBKTNV-3" target="HQgLwKXl0pq5Ib247FOc-0">
          <mxGeometry relative="1" as="geometry" />
        </mxCell>
        <mxCell id="WIyWlLk6GJQsqaUBKTNV-3" value="Start" style="rounded=1;whiteSpace=wrap;html=1;fontSize=12;glass=0;strokeWidth=1;shadow=0;" parent="WIyWlLk6GJQsqaUBKTNV-1" vertex="1">
          <mxGeometry x="354" y="-640" width="120" height="40" as="geometry" />
        </mxCell>
        <mxCell id="HQgLwKXl0pq5Ib247FOc-9" value="" style="edgeStyle=orthogonalEdgeStyle;rounded=0;orthogonalLoop=1;jettySize=auto;html=1;" edge="1" parent="WIyWlLk6GJQsqaUBKTNV-1" source="HQgLwKXl0pq5Ib247FOc-0" target="HQgLwKXl0pq5Ib247FOc-8">
          <mxGeometry relative="1" as="geometry" />
        </mxCell>
        <mxCell id="HQgLwKXl0pq5Ib247FOc-0" value="Initate and configure ncurses." style="rounded=0;whiteSpace=wrap;html=1;" vertex="1" parent="WIyWlLk6GJQsqaUBKTNV-1">
          <mxGeometry x="354" y="-580" width="120" height="60" as="geometry" />
        </mxCell>
        <mxCell id="HQgLwKXl0pq5Ib247FOc-12" value="" style="edgeStyle=orthogonalEdgeStyle;rounded=0;orthogonalLoop=1;jettySize=auto;html=1;" edge="1" parent="WIyWlLk6GJQsqaUBKTNV-1" source="HQgLwKXl0pq5Ib247FOc-1" target="HQgLwKXl0pq5Ib247FOc-11">
          <mxGeometry relative="1" as="geometry" />
        </mxCell>
        <mxCell id="HQgLwKXl0pq5Ib247FOc-1" value="Main loop" style="rounded=1;whiteSpace=wrap;html=1;" vertex="1" parent="WIyWlLk6GJQsqaUBKTNV-1">
          <mxGeometry x="354" y="-400" width="120" height="60" as="geometry" />
        </mxCell>
        <mxCell id="HQgLwKXl0pq5Ib247FOc-10" value="" style="edgeStyle=orthogonalEdgeStyle;rounded=0;orthogonalLoop=1;jettySize=auto;html=1;" edge="1" parent="WIyWlLk6GJQsqaUBKTNV-1" source="HQgLwKXl0pq5Ib247FOc-8" target="HQgLwKXl0pq5Ib247FOc-1">
          <mxGeometry relative="1" as="geometry" />
        </mxCell>
        <mxCell id="HQgLwKXl0pq5Ib247FOc-8" value="Load best score&lt;br&gt;from file." style="rounded=0;whiteSpace=wrap;html=1;" vertex="1" parent="WIyWlLk6GJQsqaUBKTNV-1">
          <mxGeometry x="354" y="-500" width="120" height="60" as="geometry" />
        </mxCell>
        <mxCell id="HQgLwKXl0pq5Ib247FOc-25" value="" style="edgeStyle=orthogonalEdgeStyle;rounded=0;orthogonalLoop=1;jettySize=auto;html=1;" edge="1" parent="WIyWlLk6GJQsqaUBKTNV-1" source="HQgLwKXl0pq5Ib247FOc-11" target="HQgLwKXl0pq5Ib247FOc-24">
          <mxGeometry relative="1" as="geometry" />
        </mxCell>
        <mxCell id="HQgLwKXl0pq5Ib247FOc-11" value="Print Score(s)" style="rounded=1;whiteSpace=wrap;html=1;" vertex="1" parent="WIyWlLk6GJQsqaUBKTNV-1">
          <mxGeometry x="354" y="-310" width="120" height="60" as="geometry" />
        </mxCell>
        <mxCell id="HQgLwKXl0pq5Ib247FOc-20" value="" style="edgeStyle=orthogonalEdgeStyle;rounded=0;orthogonalLoop=1;jettySize=auto;html=1;" edge="1" parent="WIyWlLk6GJQsqaUBKTNV-1" source="HQgLwKXl0pq5Ib247FOc-17" target="HQgLwKXl0pq5Ib247FOc-19">
          <mxGeometry relative="1" as="geometry" />
        </mxCell>
        <mxCell id="HQgLwKXl0pq5Ib247FOc-17" value="Draw game-state to Terminal" style="whiteSpace=wrap;html=1;" vertex="1" parent="WIyWlLk6GJQsqaUBKTNV-1">
          <mxGeometry x="354" y="-59" width="120" height="60" as="geometry" />
        </mxCell>
        <mxCell id="HQgLwKXl0pq5Ib247FOc-22" value="" style="edgeStyle=orthogonalEdgeStyle;rounded=0;orthogonalLoop=1;jettySize=auto;html=1;" edge="1" parent="WIyWlLk6GJQsqaUBKTNV-1" source="HQgLwKXl0pq5Ib247FOc-19" target="HQgLwKXl0pq5Ib247FOc-21">
          <mxGeometry relative="1" as="geometry" />
        </mxCell>
        <mxCell id="HQgLwKXl0pq5Ib247FOc-19" value="Print Score(s)" style="whiteSpace=wrap;html=1;" vertex="1" parent="WIyWlLk6GJQsqaUBKTNV-1">
          <mxGeometry x="354" y="16" width="120" height="60" as="geometry" />
        </mxCell>
        <mxCell id="HQgLwKXl0pq5Ib247FOc-27" value="" style="edgeStyle=orthogonalEdgeStyle;rounded=0;orthogonalLoop=1;jettySize=auto;html=1;" edge="1" parent="WIyWlLk6GJQsqaUBKTNV-1" source="HQgLwKXl0pq5Ib247FOc-21" target="HQgLwKXl0pq5Ib247FOc-23">
          <mxGeometry relative="1" as="geometry" />
        </mxCell>
        <mxCell id="HQgLwKXl0pq5Ib247FOc-21" value="Process Input" style="whiteSpace=wrap;html=1;" vertex="1" parent="WIyWlLk6GJQsqaUBKTNV-1">
          <mxGeometry x="354" y="90" width="120" height="60" as="geometry" />
        </mxCell>
        <mxCell id="HQgLwKXl0pq5Ib247FOc-29" value="" style="edgeStyle=orthogonalEdgeStyle;rounded=0;orthogonalLoop=1;jettySize=auto;html=1;" edge="1" parent="WIyWlLk6GJQsqaUBKTNV-1" source="HQgLwKXl0pq5Ib247FOc-23" target="HQgLwKXl0pq5Ib247FOc-28">
          <mxGeometry relative="1" as="geometry" />
        </mxCell>
        <mxCell id="HQgLwKXl0pq5Ib247FOc-55" style="edgeStyle=orthogonalEdgeStyle;rounded=0;orthogonalLoop=1;jettySize=auto;html=1;exitX=1;exitY=0.5;exitDx=0;exitDy=0;entryX=0;entryY=0.25;entryDx=0;entryDy=0;" edge="1" parent="WIyWlLk6GJQsqaUBKTNV-1" source="HQgLwKXl0pq5Ib247FOc-23" target="HQgLwKXl0pq5Ib247FOc-48">
          <mxGeometry relative="1" as="geometry" />
        </mxCell>
        <mxCell id="HQgLwKXl0pq5Ib247FOc-23" value="Exit&lt;br&gt;Requested?" style="rhombus;whiteSpace=wrap;html=1;" vertex="1" parent="WIyWlLk6GJQsqaUBKTNV-1">
          <mxGeometry x="359" y="190" width="110" height="110" as="geometry" />
        </mxCell>
        <mxCell id="HQgLwKXl0pq5Ib247FOc-26" value="" style="edgeStyle=orthogonalEdgeStyle;rounded=0;orthogonalLoop=1;jettySize=auto;html=1;" edge="1" parent="WIyWlLk6GJQsqaUBKTNV-1" source="HQgLwKXl0pq5Ib247FOc-24" target="HQgLwKXl0pq5Ib247FOc-17">
          <mxGeometry relative="1" as="geometry" />
        </mxCell>
        <mxCell id="HQgLwKXl0pq5Ib247FOc-24" value="Game Loop" style="whiteSpace=wrap;html=1;rounded=1;" vertex="1" parent="WIyWlLk6GJQsqaUBKTNV-1">
          <mxGeometry x="354" y="-170" width="120" height="60" as="geometry" />
        </mxCell>
        <mxCell id="HQgLwKXl0pq5Ib247FOc-33" value="" style="edgeStyle=orthogonalEdgeStyle;rounded=0;orthogonalLoop=1;jettySize=auto;html=1;" edge="1" parent="WIyWlLk6GJQsqaUBKTNV-1" source="HQgLwKXl0pq5Ib247FOc-28" target="HQgLwKXl0pq5Ib247FOc-31">
          <mxGeometry relative="1" as="geometry" />
        </mxCell>
        <mxCell id="HQgLwKXl0pq5Ib247FOc-28" value="Move snake body based on current direction" style="whiteSpace=wrap;html=1;" vertex="1" parent="WIyWlLk6GJQsqaUBKTNV-1">
          <mxGeometry x="354" y="330" width="120" height="60" as="geometry" />
        </mxCell>
        <mxCell id="HQgLwKXl0pq5Ib247FOc-35" value="" style="edgeStyle=orthogonalEdgeStyle;rounded=0;orthogonalLoop=1;jettySize=auto;html=1;" edge="1" parent="WIyWlLk6GJQsqaUBKTNV-1" source="HQgLwKXl0pq5Ib247FOc-31" target="HQgLwKXl0pq5Ib247FOc-34">
          <mxGeometry relative="1" as="geometry" />
        </mxCell>
        <mxCell id="HQgLwKXl0pq5Ib247FOc-49" value="" style="edgeStyle=orthogonalEdgeStyle;rounded=0;orthogonalLoop=1;jettySize=auto;html=1;" edge="1" parent="WIyWlLk6GJQsqaUBKTNV-1" source="HQgLwKXl0pq5Ib247FOc-31" target="HQgLwKXl0pq5Ib247FOc-48">
          <mxGeometry relative="1" as="geometry" />
        </mxCell>
        <mxCell id="HQgLwKXl0pq5Ib247FOc-31" value="Did Snake &lt;br&gt;hit itself&lt;br&gt;or a Wall?" style="rhombus;whiteSpace=wrap;html=1;" vertex="1" parent="WIyWlLk6GJQsqaUBKTNV-1">
          <mxGeometry x="359" y="410" width="110" height="110" as="geometry" />
        </mxCell>
        <mxCell id="HQgLwKXl0pq5Ib247FOc-37" value="" style="edgeStyle=orthogonalEdgeStyle;rounded=0;orthogonalLoop=1;jettySize=auto;html=1;" edge="1" parent="WIyWlLk6GJQsqaUBKTNV-1" source="HQgLwKXl0pq5Ib247FOc-34" target="HQgLwKXl0pq5Ib247FOc-36">
          <mxGeometry relative="1" as="geometry" />
        </mxCell>
        <mxCell id="HQgLwKXl0pq5Ib247FOc-41" value="" style="edgeStyle=orthogonalEdgeStyle;rounded=0;orthogonalLoop=1;jettySize=auto;html=1;" edge="1" parent="WIyWlLk6GJQsqaUBKTNV-1" source="HQgLwKXl0pq5Ib247FOc-34" target="HQgLwKXl0pq5Ib247FOc-40">
          <mxGeometry relative="1" as="geometry" />
        </mxCell>
        <mxCell id="HQgLwKXl0pq5Ib247FOc-34" value="Is snake&lt;br&gt;head position&lt;br&gt;|same as&lt;br&gt;Apple?" style="rhombus;whiteSpace=wrap;html=1;" vertex="1" parent="WIyWlLk6GJQsqaUBKTNV-1">
          <mxGeometry x="359" y="550" width="110" height="110" as="geometry" />
        </mxCell>
        <mxCell id="HQgLwKXl0pq5Ib247FOc-39" value="" style="edgeStyle=orthogonalEdgeStyle;rounded=0;orthogonalLoop=1;jettySize=auto;html=1;" edge="1" parent="WIyWlLk6GJQsqaUBKTNV-1" source="HQgLwKXl0pq5Ib247FOc-36" target="HQgLwKXl0pq5Ib247FOc-38">
          <mxGeometry relative="1" as="geometry" />
        </mxCell>
        <mxCell id="HQgLwKXl0pq5Ib247FOc-36" value="Set difficulty based on current score points." style="whiteSpace=wrap;html=1;" vertex="1" parent="WIyWlLk6GJQsqaUBKTNV-1">
          <mxGeometry x="130" y="575" width="120" height="60" as="geometry" />
        </mxCell>
        <mxCell id="HQgLwKXl0pq5Ib247FOc-60" style="edgeStyle=orthogonalEdgeStyle;rounded=0;orthogonalLoop=1;jettySize=auto;html=1;exitX=0.5;exitY=0;exitDx=0;exitDy=0;entryX=0;entryY=0.5;entryDx=0;entryDy=0;" edge="1" parent="WIyWlLk6GJQsqaUBKTNV-1" source="HQgLwKXl0pq5Ib247FOc-38" target="HQgLwKXl0pq5Ib247FOc-24">
          <mxGeometry relative="1" as="geometry" />
        </mxCell>
        <mxCell id="HQgLwKXl0pq5Ib247FOc-38" value="Wait for interval based on current difficulty" style="whiteSpace=wrap;html=1;" vertex="1" parent="WIyWlLk6GJQsqaUBKTNV-1">
          <mxGeometry x="130" y="480" width="120" height="60" as="geometry" />
        </mxCell>
        <mxCell id="HQgLwKXl0pq5Ib247FOc-59" style="edgeStyle=orthogonalEdgeStyle;rounded=0;orthogonalLoop=1;jettySize=auto;html=1;exitX=0;exitY=0.5;exitDx=0;exitDy=0;entryX=0.75;entryY=1;entryDx=0;entryDy=0;" edge="1" parent="WIyWlLk6GJQsqaUBKTNV-1" source="HQgLwKXl0pq5Ib247FOc-40" target="HQgLwKXl0pq5Ib247FOc-36">
          <mxGeometry relative="1" as="geometry" />
        </mxCell>
        <mxCell id="HQgLwKXl0pq5Ib247FOc-40" value="Increase score by 1.&lt;br&gt;Update best Score.&lt;br&gt;Spawn new Apple" style="whiteSpace=wrap;html=1;" vertex="1" parent="WIyWlLk6GJQsqaUBKTNV-1">
          <mxGeometry x="354" y="720" width="120" height="60" as="geometry" />
        </mxCell>
        <mxCell id="HQgLwKXl0pq5Ib247FOc-42" value="Yes" style="text;html=1;align=center;verticalAlign=middle;resizable=0;points=[];autosize=1;strokeColor=none;fillColor=none;" vertex="1" parent="WIyWlLk6GJQsqaUBKTNV-1">
          <mxGeometry x="414" y="670" width="40" height="30" as="geometry" />
        </mxCell>
        <mxCell id="HQgLwKXl0pq5Ib247FOc-43" value="No" style="text;html=1;align=center;verticalAlign=middle;resizable=0;points=[];autosize=1;strokeColor=none;fillColor=none;" vertex="1" parent="WIyWlLk6GJQsqaUBKTNV-1">
          <mxGeometry x="300" y="575" width="40" height="30" as="geometry" />
        </mxCell>
        <mxCell id="HQgLwKXl0pq5Ib247FOc-54" value="" style="edgeStyle=orthogonalEdgeStyle;rounded=0;orthogonalLoop=1;jettySize=auto;html=1;" edge="1" parent="WIyWlLk6GJQsqaUBKTNV-1" source="HQgLwKXl0pq5Ib247FOc-48" target="HQgLwKXl0pq5Ib247FOc-53">
          <mxGeometry relative="1" as="geometry" />
        </mxCell>
        <mxCell id="HQgLwKXl0pq5Ib247FOc-48" value="Write Best score to file." style="whiteSpace=wrap;html=1;" vertex="1" parent="WIyWlLk6GJQsqaUBKTNV-1">
          <mxGeometry x="620" y="435" width="120" height="60" as="geometry" />
        </mxCell>
        <mxCell id="HQgLwKXl0pq5Ib247FOc-50" value="No" style="text;html=1;align=center;verticalAlign=middle;resizable=0;points=[];autosize=1;strokeColor=none;fillColor=none;" vertex="1" parent="WIyWlLk6GJQsqaUBKTNV-1">
          <mxGeometry x="380" y="510" width="40" height="30" as="geometry" />
        </mxCell>
        <mxCell id="HQgLwKXl0pq5Ib247FOc-51" value="Yes" style="text;html=1;align=center;verticalAlign=middle;resizable=0;points=[];autosize=1;strokeColor=none;fillColor=none;" vertex="1" parent="WIyWlLk6GJQsqaUBKTNV-1">
          <mxGeometry x="490" y="435" width="40" height="30" as="geometry" />
        </mxCell>
        <mxCell id="HQgLwKXl0pq5Ib247FOc-63" style="edgeStyle=orthogonalEdgeStyle;rounded=0;orthogonalLoop=1;jettySize=auto;html=1;exitX=0.5;exitY=1;exitDx=0;exitDy=0;entryX=0.5;entryY=0;entryDx=0;entryDy=0;" edge="1" parent="WIyWlLk6GJQsqaUBKTNV-1" source="HQgLwKXl0pq5Ib247FOc-53" target="HQgLwKXl0pq5Ib247FOc-62">
          <mxGeometry relative="1" as="geometry" />
        </mxCell>
        <mxCell id="HQgLwKXl0pq5Ib247FOc-53" value="Show Restart/Quit&lt;br&gt;Frame" style="whiteSpace=wrap;html=1;" vertex="1" parent="WIyWlLk6GJQsqaUBKTNV-1">
          <mxGeometry x="620" y="510" width="120" height="60" as="geometry" />
        </mxCell>
        <mxCell id="HQgLwKXl0pq5Ib247FOc-56" value="Yes" style="text;html=1;align=center;verticalAlign=middle;resizable=0;points=[];autosize=1;strokeColor=none;fillColor=none;" vertex="1" parent="WIyWlLk6GJQsqaUBKTNV-1">
          <mxGeometry x="474" y="220" width="40" height="30" as="geometry" />
        </mxCell>
        <mxCell id="HQgLwKXl0pq5Ib247FOc-57" value="No" style="text;html=1;align=center;verticalAlign=middle;resizable=0;points=[];autosize=1;strokeColor=none;fillColor=none;" vertex="1" parent="WIyWlLk6GJQsqaUBKTNV-1">
          <mxGeometry x="380" y="300" width="40" height="30" as="geometry" />
        </mxCell>
        <mxCell id="HQgLwKXl0pq5Ib247FOc-67" value="" style="edgeStyle=orthogonalEdgeStyle;rounded=0;orthogonalLoop=1;jettySize=auto;html=1;" edge="1" parent="WIyWlLk6GJQsqaUBKTNV-1" source="HQgLwKXl0pq5Ib247FOc-62" target="HQgLwKXl0pq5Ib247FOc-66">
          <mxGeometry relative="1" as="geometry" />
        </mxCell>
        <mxCell id="HQgLwKXl0pq5Ib247FOc-62" value="Quit Game?" style="rhombus;whiteSpace=wrap;html=1;" vertex="1" parent="WIyWlLk6GJQsqaUBKTNV-1">
          <mxGeometry x="620" y="590" width="110" height="110" as="geometry" />
        </mxCell>
        <mxCell id="HQgLwKXl0pq5Ib247FOc-66" value="End" style="rounded=1;whiteSpace=wrap;html=1;" vertex="1" parent="WIyWlLk6GJQsqaUBKTNV-1">
          <mxGeometry x="615" y="720" width="120" height="60" as="geometry" />
        </mxCell>
      </root>
    </mxGraphModel>
  </diagram>
</mxfile>
